<?xml version="1.0" standalone="no"?>
<!DOCTYPE svg PUBLIC "-//W3C//DTD SVG 20010904//EN"
 "http://www.w3.org/TR/2001/REC-SVG-20010904/DTD/svg10.dtd">
<svg version="1.0" xmlns="http://www.w3.org/2000/svg"
 width="213.000000pt" height="242.000000pt" viewBox="0 0 213.000000 242.000000"
 preserveAspectRatio="xMidYMid meet">

<g transform="translate(0.000000,242.000000) scale(0.100000,-0.100000)"
fill="#000000" stroke="none">
<path d="M978 2260 c-212 -38 -380 -190 -433 -391 -19 -71 -19 -200 0 -274 43
-163 165 -297 332 -362 60 -23 82 -27 183 -27 101 0 123 4 183 27 216 85 347
274 347 502 0 185 -88 346 -244 447 -102 66 -256 98 -368 78z m187 -115 c84
-22 150 -61 205 -122 154 -169 154 -414 -1 -578 -87 -92 -185 -135 -309 -135
-124 0 -222 43 -309 135 -155 164 -156 409 -1 578 104 114 264 161 415 122z"/>
<path d="M985 1094 c-165 -21 -267 -51 -382 -114 -271 -146 -466 -426 -499
-718 -6 -56 -5 -61 24 -93 l30 -34 874 -3 c609 -2 884 0 911 8 56 16 71 47 64
128 -3 37 -18 105 -32 152 -104 331 -385 587 -715 653 -80 17 -226 27 -275 21z
m220 -119 c339 -59 621 -330 688 -660 l14 -70 -845 -3 c-465 -1 -848 0 -851 4
-10 10 39 178 74 253 166 349 539 542 920 476z"/>
</g>
</svg>
