<?xml version="1.0" standalone="no"?>
<!DOCTYPE svg PUBLIC "-//W3C//DTD SVG 20010904//EN"
 "http://www.w3.org/TR/2001/REC-SVG-20010904/DTD/svg10.dtd">
<svg version="1.0" xmlns="http://www.w3.org/2000/svg"
 width="239.000000pt" height="237.000000pt" viewBox="0 0 239.000000 237.000000"
 preserveAspectRatio="xMidYMid meet">

<g transform="translate(0.000000,237.000000) scale(0.100000,-0.100000)"
fill="#000000" stroke="none">
<path d="M1125 2229 c-223 -19 -453 -124 -616 -281 -325 -312 -408 -812 -202
-1209 l34 -67 -36 -203 c-38 -216 -39 -258 -2 -284 37 -26 82 -17 244 50 86
36 161 65 166 65 5 0 42 -16 82 -35 41 -19 114 -47 162 -62 81 -25 101 -27
268 -27 209 -1 284 14 441 88 124 59 205 115 295 205 413 417 405 1080 -17
1480 -220 209 -507 307 -819 280z m283 -165 c164 -33 309 -112 438 -239 244
-241 323 -578 212 -912 -172 -520 -794 -750 -1271 -471 -65 38 -102 35 -227
-17 -58 -24 -106 -40 -108 -36 -1 4 8 77 22 160 l24 153 -47 93 c-77 149 -96
230 -95 415 0 140 3 164 28 245 94 310 342 542 648 609 88 19 282 19 376 0z"/>
<path d="M1130 1674 c-99 -36 -170 -108 -204 -207 -24 -71 -21 -123 9 -152 49
-50 135 -15 135 55 0 141 171 211 271 111 39 -39 56 -91 45 -136 -4 -14 -44
-65 -90 -114 -93 -97 -134 -167 -143 -241 -5 -43 -3 -51 20 -74 50 -50 137
-17 137 51 0 36 17 61 105 153 120 125 156 228 120 342 -40 129 -155 218 -289
225 -48 2 -85 -2 -116 -13z"/>
<path d="M1175 785 c-16 -15 -25 -36 -25 -55 0 -19 9 -40 25 -55 15 -16 36
-25 55 -25 19 0 40 9 55 25 16 15 25 36 25 55 0 19 -9 40 -25 55 -15 16 -36
25 -55 25 -19 0 -40 -9 -55 -25z"/>
</g>
</svg>
