<?xml version="1.0" standalone="no"?>
<!DOCTYPE svg PUBLIC "-//W3C//DTD SVG 20010904//EN"
 "http://www.w3.org/TR/2001/REC-SVG-20010904/DTD/svg10.dtd">
<svg version="1.0" xmlns="http://www.w3.org/2000/svg"
 width="278.000000pt" height="261.000000pt" viewBox="0 0 278.000000 261.000000"
 preserveAspectRatio="xMidYMid meet">

<g transform="translate(0.000000,261.000000) scale(0.100000,-0.100000)"
fill="#000000" stroke="none">
<path d="M225 2505 l-25 -24 0 -271 0 -271 25 -24 24 -25 511 0 511 0 24 25
c23 22 25 32 25 120 l0 95 543 0 c514 0 545 -1 560 -18 15 -17 17 -55 17 -344
0 -369 2 -358 -79 -358 l-42 0 20 26 c44 56 8 134 -61 134 -27 0 -47 -15 -135
-103 -90 -90 -103 -107 -103 -137 0 -30 13 -47 103 -137 88 -88 108 -103 135
-103 68 0 105 78 62 132 l-19 25 69 5 c83 6 135 35 177 100 l28 42 0 376 0
376 -28 42 c-15 23 -46 54 -69 69 l-42 28 -568 3 -568 3 0 95 c0 87 -2 97 -25
119 l-24 25 -511 0 -511 0 -24 -25z m935 -295 l0 -160 -400 0 -400 0 0 160 0
160 400 0 400 0 0 -160z"/>
<path d="M865 1625 c-23 -22 -25 -32 -25 -119 l0 -95 -248 -3 -249 -3 -41 -28
c-23 -15 -54 -46 -69 -69 l-28 -42 0 -376 0 -376 28 -42 c15 -23 46 -54 69
-69 l42 -28 388 -3 389 -3 -21 -26 c-43 -55 -7 -133 62 -133 27 0 47 15 135
103 138 138 138 136 0 274 -88 88 -108 103 -135 103 -69 0 -105 -78 -61 -134
l20 -26 -364 0 c-340 0 -365 1 -380 18 -15 17 -17 55 -17 344 0 302 1 326 18
341 16 15 48 17 240 17 l222 0 0 -95 c0 -88 2 -98 25 -120 l24 -25 511 0 511
0 24 25 25 24 0 271 0 271 -25 24 -24 25 -511 0 -511 0 -24 -25z m935 -295 l0
-160 -400 0 -400 0 0 160 0 160 400 0 400 0 0 -160z"/>
<path d="M1505 745 l-25 -24 0 -271 0 -271 25 -24 24 -25 511 0 511 0 24 25
25 24 0 271 0 271 -25 24 -24 25 -511 0 -511 0 -24 -25z m935 -295 l0 -160
-400 0 -400 0 0 160 0 160 400 0 400 0 0 -160z"/>
</g>
</svg>
