<?xml version="1.0" standalone="no"?>
<!DOCTYPE svg PUBLIC "-//W3C//DTD SVG 20010904//EN"
 "http://www.w3.org/TR/2001/REC-SVG-20010904/DTD/svg10.dtd">
<svg version="1.0" xmlns="http://www.w3.org/2000/svg"
 width="251.000000pt" height="242.000000pt" viewBox="0 0 251.000000 242.000000"
 preserveAspectRatio="xMidYMid meet">

<g transform="translate(0.000000,242.000000) scale(0.100000,-0.100000)"
fill="#000000" stroke="none">
<path d="M1910 2317 c-14 -7 -31 -25 -39 -41 -12 -25 -11 -33 2 -62 14 -28 26
-36 77 -51 l60 -18 -887 -500 c-488 -275 -895 -509 -905 -519 -44 -47 1 -132
65 -124 19 2 396 209 915 502 486 274 885 496 887 494 2 -2 -1 -24 -6 -50 -17
-79 26 -131 96 -114 37 9 49 37 89 203 35 143 36 154 21 182 -17 33 -14 32
-217 81 -148 35 -127 33 -158 17z"/>
<path d="M1900 1631 c-78 -25 -136 -79 -164 -152 -15 -40 -16 -106 -14 -660
l3 -616 30 -49 c19 -30 49 -60 79 -79 l49 -30 157 0 157 0 49 30 c30 19 60 49
79 79 l30 49 3 616 c3 681 4 663 -61 738 -56 64 -96 77 -242 80 -71 1 -141 -1
-155 -6z"/>
<path d="M1100 1151 c-78 -25 -136 -79 -164 -153 -15 -38 -17 -88 -14 -419 l3
-376 30 -49 c19 -30 49 -60 79 -79 l49 -30 157 0 157 0 49 30 c30 19 60 49 79
79 l30 49 3 376 c3 415 2 426 -61 498 -56 64 -96 77 -242 80 -71 1 -141 -1
-155 -6z"/>
<path d="M305 791 c-79 -20 -140 -76 -170 -153 -14 -38 -16 -75 -13 -240 l3
-195 30 -49 c19 -30 49 -60 79 -79 l49 -30 157 0 157 0 49 30 c30 19 60 49 79
79 l30 49 3 195 c4 217 -3 253 -61 319 -55 63 -96 76 -237 79 -69 2 -138 0
-155 -5z"/>
</g>
</svg>
