<?xml version="1.0" standalone="no"?>
<!DOCTYPE svg PUBLIC "-//W3C//DTD SVG 20010904//EN"
 "http://www.w3.org/TR/2001/REC-SVG-20010904/DTD/svg10.dtd">
<svg version="1.0" xmlns="http://www.w3.org/2000/svg"
 width="82.000000pt" height="75.000000pt" viewBox="0 0 82.000000 75.000000"
 preserveAspectRatio="xMidYMid meet">

<g transform="translate(0.000000,75.000000) scale(0.100000,-0.100000)"
fill="#000000" stroke="none">
<path d="M350 578 c-26 -14 -58 -42 -77 -68 -33 -45 -43 -57 -82 -91 -39 -35
-20 -149 29 -164 30 -10 63 12 57 38 -17 72 -18 115 -2 153 21 51 51 82 100
105 129 60 281 -51 260 -190 -4 -25 -13 -58 -21 -72 -30 -58 -105 -99 -181
-99 -28 0 -33 -3 -33 -25 0 -23 3 -25 50 -25 28 0 50 4 50 10 0 5 22 21 49 35
27 13 58 36 70 51 11 14 25 23 31 19 18 -11 50 6 65 35 29 56 10 150 -30 150
-7 0 -24 19 -38 43 -14 23 -36 52 -49 64 -60 56 -171 70 -248 31z"/>
<path d="M348 492 c-37 -35 -42 -45 -46 -95 -3 -44 0 -64 16 -90 13 -22 18
-44 14 -62 -4 -26 -3 -27 19 -21 13 5 51 7 84 7 109 -3 169 58 162 163 -3 54
-7 62 -45 97 -38 36 -45 39 -102 39 -57 0 -64 -3 -102 -38z m50 -108 c4 -27
-26 -40 -46 -20 -13 13 -13 18 -2 31 18 21 44 15 48 -11z m79 10 c3 -8 -2 -23
-11 -32 -15 -15 -17 -15 -32 0 -21 21 -11 48 16 48 11 0 23 -7 27 -16z m73 0
c11 -12 11 -18 -2 -30 -18 -18 -48 -8 -48 15 0 33 28 42 50 15z"/>
</g>
</svg>
